HIERARCHY
ROOT Hips
{
  OFFSET -4.35178 90.3298 111.633
  CHANNELS 6 Xposition Yposition Zposition Zrotation Xrotation Yrotation
  JOINT LeftUpLeg
  {
    OFFSET 0.103456 1.85784 10.5485
    CHANNELS 6 Xposition Yposition Zposition Zrotation Xrotation Yrotation
    JOINT LeftLeg
    {
      OFFSET 43.5 -4.2e-05 0
      CHANNELS 6 Xposition Yposition Zposition Zrotation Xrotation Yrotation
      JOINT LeftFoot
      {
        OFFSET 42.3722 1.9e-05 0
        CHANNELS 6 Xposition Yposition Zposition Zrotation Xrotation Yrotation
        JOINT LeftToe
        {
          OFFSET 17.3 0 0
          CHANNELS 6 Xposition Yposition Zposition Zrotation Xrotation Yrotation
          End Site
          {
            OFFSET 0 0 0
          }
        }
      }
    }
  }
  JOINT RightUpLeg
  {
    OFFSET 0.103456 1.85782 -10.5485
    CHANNELS 6 Xposition Yposition Zposition Zrotation Xrotation Yrotation
    JOINT RightLeg
    {
      OFFSET 43.5 -2.7e-05 0
      CHANNELS 6 Xposition Yposition Zposition Zrotation Xrotation Yrotation
      JOINT RightFoot
      {
        OFFSET 42.3723 0 0
        CHANNELS 6 Xposition Yposition Zposition Zrotation Xrotation Yrotation
        JOINT RightToe
        {
          OFFSET 17.3 0 1.7e-05
          CHANNELS 6 Xposition Yposition Zposition Zrotation Xrotation Yrotation
          End Site
          {
            OFFSET 0 0 0
          }
        }
      }
    }
  }
  JOINT Spine
  {
    OFFSET 6.90197 -2.60373 0
    CHANNELS 6 Xposition Yposition Zposition Zrotation Xrotation Yrotation
    JOINT Spine1
    {
      OFFSET 12.5881 0 0
      CHANNELS 6 Xposition Yposition Zposition Zrotation Xrotation Yrotation
      JOINT Spine2
      {
        OFFSET 12.3432 -1.8e-05 0
        CHANNELS 6 Xposition Yposition Zposition Zrotation Xrotation Yrotation
        JOINT Neck
        {
          OFFSET 25.8329 2.3e-05 0
          CHANNELS 6 Xposition Yposition Zposition Zrotation Xrotation Yrotation
          JOINT Head
          {
            OFFSET 11.7666 0 0
            CHANNELS 6 Xposition Yposition Zposition Zrotation Xrotation Yrotation
            End Site
            {
              OFFSET 0 0 0
            }
          }
        }
        JOINT LeftShoulder
        {
          OFFSET 19.7459 -1.48035 6.0001
          CHANNELS 6 Xposition Yposition Zposition Zrotation Xrotation Yrotation
          JOINT LeftArm
          {
            OFFSET 11.2841 1.8e-05 -2e-05
            CHANNELS 6 Xposition Yposition Zposition Zrotation Xrotation Yrotation
            JOINT LeftForeArm
            {
              OFFSET 33 -1.3e-05 1.9e-05
              CHANNELS 6 Xposition Yposition Zposition Zrotation Xrotation Yrotation
              JOINT LeftHand
              {
                OFFSET 25.2 3.2e-05 1.1e-05
                CHANNELS 6 Xposition Yposition Zposition Zrotation Xrotation Yrotation
                End Site
                {
                  OFFSET 0 0 0
                }
              }
            }
          }
        }
        JOINT RightShoulder
        {
          OFFSET 19.7461 -1.48036 -6.00008
          CHANNELS 6 Xposition Yposition Zposition Zrotation Xrotation Yrotation
          JOINT RightArm
          {
            OFFSET 11.2841 0 0
            CHANNELS 6 Xposition Yposition Zposition Zrotation Xrotation Yrotation
            JOINT RightForeArm
            {
              OFFSET 33.0001 1.6e-05 0
              CHANNELS 6 Xposition Yposition Zposition Zrotation Xrotation Yrotation
              JOINT RightHand
              {
                OFFSET 25.1998 0.000123 0.000432
                CHANNELS 6 Xposition Yposition Zposition Zrotation Xrotation Yrotation
                End Site
                {
                  OFFSET 0 0 0
                }
              }
            }
          }
        }
      }
    }
  }
}
MOTION
Frames:	6
Frame Time:	0.0333333
103.914 86.6758 159.122 84.4682 -25.7128 -0.617408 0.103456 1.85784 10.5485 20.6799 21.3961 -178.164 43.5 -4.2e-05 1e-05 -19.4482 -17.8632 -7.20461 42.3722 1.9e-05 0 78.9946 -15.6178 11.3439 17.3 -7.10543e-15 3e-06 21.4546 -1e-06 0.003093 0.103456 1.85782 -10.5485 -21.809 -11.7461 172.067 43.5 -2.7e-05 4e-06 -37.6729 12.5171 6.66702 42.3723 0 1e-05 85.7997 10.7454 -19.1926 17.3 -6e-06 1.7e-05 21.4546 -1.9e-05 -0.003116 6.90197 -2.60373 -3e-06 9.28053 -0.908327 0.293394 12.5881 1e-05 8e-06 8.57186 -1.65231 0.771715 12.3432 -1.8e-05 -5e-06 8.2757 -1.47406 0.887906 25.8329 2.3e-05 7e-06 6.86968 -3.84181 0.310051 11.7666 -8e-06 -6e-06 -16.702 -17.2992 15.9923 19.7459 -1.48035 6.0001 176.224 -4.90944 -94.8851 11.2841 1.8e-05 -2e-05 -26.1975 -10.9942 69.8403 33 -1.3e-05 1.9e-05 -93.2181 -16.5678 -6.35766 25.2 3.2e-05 1.1e-05 -29.2462 25.2579 2.93755 19.7461 -1.48036 -6.00008 -163.963 -8.26789 71.7917 11.2841 0 -1e-06 -18.8926 -11.6974 -47.7226 33.0001 1.6e-05 -1e-06 -113.946 -5.47719 26.4235 25.1998 0.000123 0.000432 -3.25463 -20.5267 16.1509 
102.184 86.329 157.077 84.8039 -27.5962 -0.741534 0.103456 1.85784 10.5485 20.1415 20.8344 -176.708 43.5 -4.2e-05 1e-05 -23.0205 -17.6263 -8.15726 42.3722 1.9e-05 2.84217e-14 77.507 -17.0593 11.6832 17.3 0 3e-06 21.4546 -1e-06 0.003093 0.103456 1.85782 -10.5485 -21.4206 -11.1012 173.434 43.5 -2.7e-05 4e-06 -39.2835 12.2578 6.29619 42.3723 0 1e-05 86.874 10.6316 -18.677 17.3 -6e-06 1.7e-05 21.4546 -1.9e-05 -0.003116 6.90197 -2.60373 -3e-06 9.02342 -0.918369 0.294498 12.5881 1e-05 8e-06 8.05798 -1.67968 0.771367 12.3432 -1.8e-05 -5e-06 7.76233 -1.50926 0.888919 25.8329 2.3e-05 7e-06 6.86255 -3.4792 -0.0302357 11.7666 -8e-06 -6e-06 -16.0722 -16.4353 15.5919 19.7459 -1.48035 6.0001 176.875 -4.79762 -94.9756 11.2841 1.8e-05 -2e-05 -25.9936 -10.6562 69.9097 33 -1.3e-05 1.9e-05 -93.0606 -16.6572 -6.366 25.2 3.2e-05 1.1e-05 -29.2358 25.4984 2.88459 19.7461 -1.48036 -6.00008 -163.161 -8.27519 71.7801 11.2841 0 -1e-06 -17.9168 -11.8178 -47.7159 33.0001 1.6e-05 -1e-06 -112.864 -6.72537 26.2827 25.1998 0.000123 0.000432 -2.8553 -21.0594 16.0507 
100.43 86.3475 154.762 84.6262 -29.7071 -1.07472 0.103456 1.85784 10.5485 19.4386 19.8574 -174.93 43.5 -4.2e-05 1e-05 -27.6229 -17.2133 -9.52203 42.3722 1.9e-05 2.84217e-14 74.0997 -17.9928 12.4382 17.3 1.42109e-14 3e-06 21.4546 -1e-06 0.003093 0.103456 1.85782 -10.5485 -20.3912 -10.8696 175.026 43.5 -2.7e-05 4e-06 -40.5342 12.2303 5.63288 42.3723 0 1e-05 87.1127 9.88089 -18.3188 17.3 -6e-06 1.7e-05 21.4546 -1.9e-05 -0.003116 6.90197 -2.60373 -3e-06 8.999 -0.830305 0.25416 12.5881 1e-05 8e-06 8.00602 -1.51214 0.675512 12.3432 -1.8e-05 -5e-06 7.70802 -1.34873 0.782786 25.8329 2.3e-05 7e-06 6.68925 -3.14573 -0.279482 11.7666 -8e-06 -6e-06 -16.4061 -15.7859 15.3818 19.7459 -1.48035 6.0001 177.198 -4.87192 -94.7321 11.2841 1.8e-05 -2e-05 -25.642 -10.316 69.3685 33 -1.3e-05 1.9e-05 -92.3738 -16.4622 -6.31122 25.2 3.2e-05 1.1e-05 -29.0321 25.897 2.84785 19.7461 -1.48036 -6.00008 -163.192 -8.09121 71.6649 11.2841 2.84217e-14 -1e-06 -17.8054 -12.5765 -47.3968 33.0001 1.6e-05 -1e-06 -112.563 -5.96358 26.4704 25.1998 0.000123 0.000432 -2.6252 -21.8095 16.8442 
98.6016 86.4511 152.255 84.2248 -32.1753 -1.53369 0.103456 1.85784 10.5485 17.7854 18.5456 -172.615 43.5 -4.2e-05 1e-05 -34.1631 -16.2504 -11.1957 42.3722 1.9e-05 0 68.74 -17.9396 13.1994 17.3 1.42109e-14 3e-06 21.4546 -1e-06 0.003093 0.103456 1.85782 -10.5485 -18.1327 -11.1224 176.428 43.5 -2.7e-05 4e-06 -40.4117 12.2981 5.48291 42.3723 0 1e-05 88.3466 8.78683 -17.0845 17.3 -6e-06 1.7e-05 21.4546 -1.9e-05 -0.003116 6.90197 -2.60373 -3e-06 8.9879 -0.717331 0.130812 12.5881 1e-05 8e-06 7.97958 -1.30824 0.410181 12.3432 -1.8e-05 -5e-06 7.67941 -1.1621 0.505301 25.8329 2.3e-05 7e-06 6.2941 -2.50334 -0.684974 11.7666 -8e-06 -6e-06 -15.8957 -14.7741 15.5695 19.7459 -1.48035 6.0001 177.72 -5.12526 -94.4349 11.2841 1.8e-05 -2e-05 -24.6814 -9.89611 68.5436 33 -1.3e-05 1.9e-05 -91.3679 -16.2066 -6.20674 25.2 3.2e-05 1.1e-05 -28.543 26.5105 2.74243 19.7461 -1.48036 -6.00008 -163.303 -7.90362 71.4662 11.2841 0 -1e-06 -17.7672 -12.7887 -46.7189 33.0001 1.6e-05 -1e-06 -112.25 -6.6368 26.3203 25.1998 0.000123 0.000432 -2.49021 -22.5059 17.2677 
96.8703 86.6327 149.67 83.773 -34.8517 -2.13228 0.103456 1.85784 10.5485 14.123 16.2909 -170.042 43.5 -4.2e-05 1e-05 -43.3887 -14.9997 -12.3055 42.3722 1.9e-05 0 62.1897 -15.1038 15.1905 17.3 0 3e-06 21.4546 -1e-06 0.003093 0.103456 1.85782 -10.5485 -15.3519 -11.1109 178.3 43.5 -2.7e-05 4e-06 -39.32 12.6094 4.80628 42.3723 0 1e-05 89.4746 7.74904 -15.7906 17.3 -6e-06 1.7e-05 21.4546 -1.9e-05 -0.003116 6.90197 -2.60373 -3e-06 9.02047 -0.560082 -0.0118243 12.5881 1e-05 8e-06 8.03981 -1.01835 0.0994235 12.3432 -1.8e-05 -5e-06 7.73621 -0.891079 0.177193 25.8329 2.3e-05 7e-06 5.86437 -1.93706 -1.10398 11.7666 -8e-06 -6e-06 -15.4965 -13.8199 15.796 19.7459 -1.48035 6.0001 178.335 -5.2324 -94.1057 11.2841 1.8e-05 -2e-05 -23.2184 -9.72647 67.442 33 -1.3e-05 1.9e-05 -90.4318 -15.8561 -6.07958 25.2 3.2e-05 1.1e-05 -27.7797 27.0328 2.66537 19.7461 -1.48036 -6.00008 -163.431 -7.88605 71.6929 11.2841 0 -1e-06 -18.2638 -12.5145 -46.2567 33.0001 1.6e-05 -1e-06 -112.688 -6.84006 26.2487 25.1998 0.000123 0.000432 -2.51235 -22.6657 17.3914 
95.2131 86.8534 147.182 83.3145 -37.3989 -2.83972 0.103456 1.85784 10.5485 8.97266 13.5846 -168.037 43.5 -4.2e-05 1e-05 -53.1633 -13.6221 -11.9141 42.3722 1.9e-05 -2.84217e-14 55.2277 -7.63267 17.8504 17.3 1.42109e-14 3e-06 21.4546 -1e-06 0.003093 0.103456 1.85782 -10.5485 -12.6025 -10.2898 -179.408 43.5 -2.7e-05 4e-06 -37.9567 12.9853 3.33288 42.3723 0 1e-05 90.0421 7.53288 -14.9143 17.3 -6e-06 1.7e-05 21.4546 -1.9e-05 -0.003116 6.90197 -2.60373 -3e-06 9.13488 -0.400218 -0.117693 12.5881 1e-05 8e-06 8.26446 -0.715575 -0.137923 12.3432 -1.8e-05 -5e-06 7.95692 -0.600139 -0.0783382 25.8329 2.3e-05 7e-06 5.45206 -1.43722 -1.51203 11.7666 -8e-06 -6e-06 -16.0072 -12.9878 15.9019 19.7459 -1.48035 6.0001 178.935 -5.15676 -93.739 11.2841 1.8e-05 -2e-05 -21.4564 -9.93941 66.4098 33 -1.3e-05 1.9e-05 -89.8468 -15.5104 -5.98364 25.2 3.2e-05 1.1e-05 -27.2544 27.4899 2.52331 19.7461 -1.48036 -6.00008 -163.54 -7.80347 72.0868 11.2841 0 -1e-06 -18.5011 -11.2957 -45.575 33.0001 1.6e-05 -1e-06 -113.608 -8.15429 25.9439 25.1998 0.000123 0.000432 -2.71885 -22.3305 16.827 
